<?xml version="1.0" encoding="UTF-8" standalone="no"?>
<svg
   xmlns:dc="http://purl.org/dc/elements/1.1/"
   xmlns:cc="http://creativecommons.org/ns#"
   xmlns:rdf="http://www.w3.org/1999/02/22-rdf-syntax-ns#"
   xmlns:svg="http://www.w3.org/2000/svg"
   xmlns="http://www.w3.org/2000/svg"
   id="svg472"
   xml:space="preserve"
   viewBox="0 0 493.8 338.32"
   version="1.1"
   height="338.32"
   width="493.8"><defs
     id="defs476" /><metadata
     id="metadata2"><rdf:RDF><cc:Work
         rdf:about=""><dc:format>image/svg+xml</dc:format><dc:type
           rdf:resource="http://purl.org/dc/dcmitype/StillImage" /><dc:title></dc:title></cc:Work></rdf:RDF></metadata><path
     id="path10"
     stroke-width=".7925"
     stroke-miterlimit="10"
     stroke-linecap="round"
     stroke="#000"
     fill="none"
     d="m0.39625 270.9h106.65v-229.65h-106.65z" /><path
     id="path12"
     stroke-width=".7925"
     stroke-miterlimit="10"
     stroke-linecap="round"
     stroke="#000"
     fill="none"
     d="m175.45 276.15h133.35v-234.9h-133.35zm205.5-17.7h106.65v-217.2h-106.65z" /><text
     x="8.3462496"
     y="56.396873"
     font-size="11.908px"
     font-weight="bold"
     style="font-weight:bold;font-size:11.90799999px;line-height:0%;font-family:Arial;fill:#000000"
     id="text22"><tspan
       id="tspan20">People</tspan></text>
<g
     id="g48"
     style="font-family:Arial;fill:#000000"><text
       x="8.3462496"
       y="69.146873"
       font-size="11.114px"
       style="font-size:11.11400032px;line-height:0%"
       id="text26"><tspan
         x="8.3462496"
         y="69.146873"
         id="tspan24">•</tspan></text>
<text
       x="12.246249"
       y="69.146873"
       font-size="10.319px"
       style="font-size:10.31900024px;line-height:0%"
       id="text30"><tspan
         id="tspan28">Roles</tspan></text>
<text
       x="8.3462496"
       y="81.596878"
       font-size="11.114px"
       style="font-size:11.11400032px;line-height:0%"
       id="text34"><tspan
         x="8.3462496"
         y="81.596878"
         id="tspan32">•</tspan></text>
<text
       x="12.246249"
       y="81.596878"
       font-size="10.319px"
       style="font-size:10.31900024px;line-height:0%"
       id="text38"><tspan
         id="tspan36">Capabilities</tspan></text>
<text
       x="8.3462496"
       y="94.046875"
       font-size="11.114px"
       style="font-size:11.11400032px;line-height:0%"
       id="text42"><tspan
         x="8.3462496"
         y="94.046875"
         id="tspan40">•</tspan></text>
<text
       x="12.246249"
       y="94.046875"
       font-size="10.319px"
       style="font-size:10.31900024px;line-height:0%"
       id="text46"><tspan
         id="tspan44">Characteristics</tspan></text>
</g><text
     x="8.3462496"
     y="120.29688"
     font-size="11.908px"
     font-weight="bold"
     style="font-weight:bold;font-size:11.90799999px;line-height:0%;font-family:Arial;fill:#000000"
     id="text52"><tspan
       x="8.3462496"
       y="120.29688"
       id="tspan50">Organizations</tspan></text>
<g
     id="g78"
     style="font-family:Arial;fill:#000000"><text
       x="8.3462496"
       y="133.04688"
       font-size="11.114px"
       style="font-size:11.11400032px;line-height:0%"
       id="text56"><tspan
         x="8.3462496"
         y="133.04688"
         id="tspan54">•</tspan></text>
<text
       x="12.246249"
       y="133.04688"
       font-size="10.319px"
       style="font-size:10.31900024px;line-height:0%"
       id="text60"><tspan
         id="tspan58">Strategies</tspan></text>
<text
       x="8.3462496"
       y="145.49687"
       font-size="11.114px"
       style="font-size:11.11400032px;line-height:0%"
       id="text64"><tspan
         x="8.3462496"
         y="145.49687"
         id="tspan62">•</tspan></text>
<text
       x="12.246249"
       y="145.49687"
       font-size="10.319px"
       style="font-size:10.31900024px;line-height:0%"
       id="text68"><tspan
         id="tspan66">Structure &amp; Culture</tspan></text>
<text
       x="8.3462496"
       y="157.94687"
       font-size="11.114px"
       style="font-size:11.11400032px;line-height:0%"
       id="text72"><tspan
         x="8.3462496"
         y="157.94687"
         id="tspan70">•</tspan></text>
<text
       x="12.246249"
       y="157.94687"
       font-size="10.319px"
       style="font-size:10.31900024px;line-height:0%"
       id="text76"><tspan
         id="tspan74">Processes</tspan></text>
</g><text
     x="8.3462496"
     y="184.34686"
     font-size="11.908px"
     font-weight="bold"
     style="font-weight:bold;font-size:11.90799999px;line-height:0%;font-family:Arial;fill:#000000"
     id="text82"><tspan
       x="8.3462496"
       y="184.34686"
       id="tspan80">Technology</tspan></text>
<g
     id="g120"
     style="font-family:Arial;fill:#000000"><text
       x="8.3462496"
       y="196.94687"
       font-size="11.114px"
       style="font-size:11.11400032px;line-height:0%"
       id="text86"><tspan
         x="8.3462496"
         y="196.94687"
         id="tspan84">•</tspan></text>
<text
       x="12.246249"
       y="196.94687"
       font-size="10.319px"
       style="font-size:10.31900024px;line-height:0%"
       id="text90"><tspan
         id="tspan88">Infrastructure</tspan></text>
<text
       x="8.3462496"
       y="209.39674"
       font-size="11.114px"
       style="font-size:11.11400032px;line-height:0%"
       id="text94"><tspan
         x="8.3462496"
         y="209.39674"
         id="tspan92">•</tspan></text>
<text
       x="12.246249"
       y="209.39674"
       font-size="10.319px"
       style="font-size:10.31900024px;line-height:0%"
       id="text98"><tspan
         id="tspan96">Applications</tspan></text>
<text
       x="8.3462496"
       y="221.84686"
       font-size="11.114px"
       style="font-size:11.11400032px;line-height:0%"
       id="text102"><tspan
         x="8.3462496"
         y="221.84686"
         id="tspan100">•</tspan></text>
<text
       x="12.246249"
       y="221.84686"
       font-size="10.319px"
       style="font-size:10.31900024px;line-height:0%"
       id="text108">Communications</text>
<text
       x="8.3462496"
       y="246.59686"
       font-size="11.114px"
       style="font-size:11.11400032px;line-height:0%"
       id="text112"><tspan
         x="8.3462496"
         y="246.59686"
         id="tspan110">•</tspan></text>
<text
       x="12.246249"
       y="246.59686"
       font-size="10.319px"
       style="font-size:10.31900024px;line-height:0%"
       id="text118">Development</text>
<text
       id="text4410"
       style="font-size:10.31900024px;line-height:0%"
       font-size="10.319px"
       y="232.99734"
       x="12.246249">Architecture</text>
<text
       id="text4412"
       style="font-size:10.31900024px;line-height:0%"
       font-size="10.319px"
       y="258.76102"
       x="12.246249">Capabilities</text>
</g><text
     x="386.19626"
     y="59.696877"
     font-size="11.908px"
     font-weight="bold"
     style="font-weight:bold;font-size:11.90799999px;line-height:0%;font-family:Arial;fill:#000000"
     id="text124"><tspan
       id="tspan122">Foundations</tspan></text>
<g
     id="g182"
     style="font-family:Arial;fill:#000000"><text
       x="386.19626"
       y="72.296875"
       font-size="11.114px"
       style="font-size:11.11400032px;line-height:0%"
       id="text128"><tspan
         x="386.19626"
         y="72.296875"
         id="tspan126">•</tspan></text>
<text
       x="390.09625"
       y="72.296875"
       font-size="10.319px"
       style="font-size:10.31900024px;line-height:0%"
       id="text132"><tspan
         id="tspan130">Theories</tspan></text>
<text
       x="386.19626"
       y="84.74688"
       font-size="11.114px"
       style="font-size:11.11400032px;line-height:0%"
       id="text136"><tspan
         x="386.19626"
         y="84.74688"
         id="tspan134">•</tspan></text>
<text
       x="390.09625"
       y="84.74688"
       font-size="10.319px"
       style="font-size:10.31900024px;line-height:0%"
       id="text140"><tspan
         id="tspan138">Frameworks</tspan></text>
<text
       x="386.19626"
       y="97.196877"
       font-size="11.114px"
       style="font-size:11.11400032px;line-height:0%"
       id="text144"><tspan
         x="386.19626"
         y="97.196877"
         id="tspan142">•</tspan></text>
<text
       x="390.09625"
       y="97.196877"
       font-size="10.319px"
       style="font-size:10.31900024px;line-height:0%"
       id="text148"><tspan
         id="tspan146">Instruments</tspan></text>
<text
       x="386.19626"
       y="109.49688"
       font-size="11.114px"
       style="font-size:11.11400032px;line-height:0%"
       id="text152"><tspan
         x="386.19626"
         y="109.49688"
         id="tspan150">•</tspan></text>
<text
       x="390.09625"
       y="109.49688"
       font-size="10.319px"
       style="font-size:10.31900024px;line-height:0%"
       id="text156"><tspan
         id="tspan154">Constructs</tspan></text>
<text
       x="386.19626"
       y="121.94688"
       font-size="11.114px"
       style="font-size:11.11400032px;line-height:0%"
       id="text160"><tspan
         x="386.19626"
         y="121.94688"
         id="tspan158">•</tspan></text>
<text
       x="390.09625"
       y="121.94688"
       font-size="10.319px"
       style="font-size:10.31900024px;line-height:0%"
       id="text164"><tspan
         id="tspan162">Models</tspan></text>
<text
       x="386.19626"
       y="134.39674"
       font-size="11.114px"
       style="font-size:11.11400032px;line-height:0%"
       id="text168"><tspan
         x="386.19626"
         y="134.39674"
         id="tspan166">•</tspan></text>
<text
       x="390.09625"
       y="134.39674"
       font-size="10.319px"
       style="font-size:10.31900024px;line-height:0%"
       id="text172"><tspan
         id="tspan170">Methods</tspan></text>
<text
       x="386.19626"
       y="146.69687"
       font-size="11.114px"
       style="font-size:11.11400032px;line-height:0%"
       id="text176"><tspan
         x="386.19626"
         y="146.69687"
         id="tspan174">•</tspan></text>
<text
       x="390.09625"
       y="146.69687"
       font-size="10.319px"
       style="font-size:10.31900024px;line-height:0%"
       id="text180"><tspan
         id="tspan178">Instantiations</tspan></text>
</g><text
     x="386.19626"
     y="173.09686"
     font-size="11.908px"
     font-weight="bold"
     style="font-weight:bold;font-size:11.90799999px;line-height:0%;font-family:Arial;fill:#000000"
     id="text186"><tspan
       id="tspan184">Methodologies</tspan></text>
<g
     id="g222"
     style="font-family:Arial;fill:#000000"><text
       x="386.19626"
       y="185.84686"
       font-size="11.114px"
       style="font-size:11.11400032px;line-height:0%"
       id="text190"><tspan
         x="386.19626"
         y="185.84686"
         id="tspan188">•</tspan></text>
<text
       x="390.09625"
       y="185.84686"
       font-size="10.319px"
       style="font-size:10.31900024px;line-height:0%"
       id="text196">Data Analysis</text>
<text
       x="386.19626"
       y="210.59686"
       font-size="11.114px"
       style="font-size:11.11400032px;line-height:0%"
       id="text200"><tspan
         x="386.19626"
         y="210.59686"
         id="tspan198">•</tspan></text>
<text
       x="390.09625"
       y="210.59686"
       font-size="10.319px"
       style="font-size:10.31900024px;line-height:0%"
       id="text204"><tspan
         id="tspan202">Formalisms</tspan></text>
<text
       x="386.19626"
       y="223.04688"
       font-size="11.114px"
       style="font-size:11.11400032px;line-height:0%"
       id="text208"><tspan
         x="386.19626"
         y="223.04688"
         id="tspan206">•</tspan></text>
<text
       x="390.09625"
       y="223.04688"
       font-size="10.319px"
       style="font-size:10.31900024px;line-height:0%"
       id="text212"><tspan
         id="tspan210">Measures</tspan></text>
<text
       x="386.19626"
       y="235.49687"
       font-size="11.114px"
       style="font-size:11.11400032px;line-height:0%"
       id="text216"><tspan
         x="386.19626"
         y="235.49687"
         id="tspan214">•</tspan></text>
<text
       x="390.09625"
       y="235.49687"
       font-size="10.319px"
       style="font-size:10.31900024px;line-height:0%"
       id="text220"><tspan
         id="tspan218">Validation Criteria</tspan></text>
<text
       id="text4414"
       style="font-size:10.31900024px;line-height:0%"
       font-size="10.319px"
       y="196.74391"
       x="390.09625">Techniques</text>
</g><text
     id="text4171"
     style="font-weight:bold;font-size:10.34815407px;line-height:0%;font-family:Arial;fill:#000000;stroke-width:0.72420424"
     font-weight="bold"
     font-size="14.289px"
     y="25.009373"
     x="115.8066">Relevance</text>
<text
     x="329.04858"
     y="25.009373"
     font-size="14.289px"
     font-weight="bold"
     style="font-weight:bold;font-size:10.34815407px;line-height:0%;font-family:Arial;fill:#000000;stroke-width:0.72420424"
     id="text4173">Rigor</text>
<text
     id="text4191"
     style="font-weight:bold;font-size:14.28899956px;line-height:0%;font-family:Arial;fill:#000000"
     font-weight="bold"
     font-size="14.289px"
     y="25.679974"
     x="10.80464"><tspan
       id="tspan4187"
       y="25.679974"
       x="10.80464 20.405251 29.257132 37.054504 40.956764 46.655117 55.369823 64.084534 76.832954 84.761787 93.613663">Environment</tspan><tspan
       id="tspan4189"
       x="486.70291" /></text>
<text
     x="201.82642"
     y="25.679974"
     font-size="14.289px"
     font-weight="bold"
     style="font-weight:bold;font-size:14.28899956px;line-height:0%;font-family:Arial;fill:#000000"
     id="text4197">IS Research</text>
<text
     id="text4199"
     style="font-weight:bold;font-size:14.28899956px;line-height:0%;font-family:Arial;fill:#000000"
     font-weight="bold"
     font-size="14.289px"
     y="25.679974"
     x="380.30457">Knowledge Base</text>
<path
     id="path226"
     stroke-width=".59375"
     stroke-miterlimit="10"
     stroke-linecap="round"
     stroke="#000"
     fill="none"
     d="m184.3 111.15h115.5v-56.7h-115.5zm0 150.75h115.5v-93.15h-115.5z" /><g
     id="g296"
     font-family="Arial"
     fill="#000000"><text
       id="text230"
       style="font-weight:bold;font-size:11.90799999px;line-height:0%"
       font-weight="bold"
       font-size="11.908px"
       y="70.646751"
       x="189.54625"><tspan
         y="70.646751"
         id="tspan228"
         x="189.54625">Develop/Build</tspan></text>
<g
       id="g248"><text
         id="text234"
         style="line-height:0%"
         font-size="11.114px"
         y="83.396873"
         x="189.54625"><tspan
           id="tspan232"
           y="83.396873"
           x="189.54625">•</tspan></text>
<text
         id="text238"
         style="font-size:10.31900024px;line-height:0%"
         font-size="10.319px"
         y="83.396873"
         x="193.44624"><tspan
           id="tspan236">Theories</tspan></text>
<text
         id="text242"
         style="line-height:0%"
         font-size="11.114px"
         y="95.696877"
         x="189.54625"><tspan
           id="tspan240"
           y="95.696877"
           x="189.54625">•</tspan></text>
<text
         id="text246"
         style="font-size:10.31900024px;line-height:0%"
         font-size="10.319px"
         y="95.696877"
         x="193.44624"><tspan
           id="tspan244">Artifacts</tspan></text>
</g><text
       id="text252"
       style="font-weight:bold;font-size:11.90799999px;line-height:0%"
       font-weight="bold"
       font-size="11.908px"
       y="183.14674"
       x="189.39624"><tspan
         id="tspan250"
         y="183.14674"
         x="189.39624">Justify/Evaluate</tspan></text>
<g
       id="g294"><text
         id="text256"
         style="line-height:0%"
         font-size="11.114px"
         y="195.74687"
         x="189.39624"><tspan
           id="tspan254"
           y="195.74687"
           x="189.39624">•</tspan></text>
<text
         id="text260"
         style="font-size:10.31900024px;line-height:0%"
         font-size="10.319px"
         y="195.74687"
         x="193.29625"><tspan
           id="tspan258">Analytical</tspan></text>
<text
         id="text264"
         style="line-height:0%"
         font-size="11.114px"
         y="208.19687"
         x="189.39624"><tspan
           id="tspan262"
           y="208.19687"
           x="189.39624">•</tspan></text>
<text
         id="text268"
         style="font-size:10.31900024px;line-height:0%"
         font-size="10.319px"
         y="208.19687"
         x="193.29625"><tspan
           id="tspan266">Case Study</tspan></text>
<text
         id="text272"
         style="line-height:0%"
         font-size="11.114px"
         y="220.64687"
         x="189.39624"><tspan
           id="tspan270"
           y="220.64687"
           x="189.39624">•</tspan></text>
<text
         id="text276"
         style="font-size:10.31900024px;line-height:0%"
         font-size="10.319px"
         y="220.64687"
         x="193.29625"><tspan
           id="tspan274">Experimental</tspan></text>
<text
         id="text280"
         style="line-height:0%"
         font-size="11.114px"
         y="232.94687"
         x="189.39624"><tspan
           id="tspan278"
           y="232.94687"
           x="189.39624">•</tspan></text>
<text
         id="text284"
         style="font-size:10.31900024px;line-height:0%"
         font-size="10.319px"
         y="232.94687"
         x="193.29625"><tspan
           id="tspan282">Field Study</tspan></text>
<text
         id="text288"
         style="line-height:0%"
         font-size="11.114px"
         y="245.39687"
         x="189.39624"><tspan
           id="tspan286"
           y="245.39687"
           x="189.39624">•</tspan></text>
<text
         id="text292"
         style="font-size:10.31900024px;line-height:0%"
         font-size="10.319px"
         y="245.39687"
         x="193.29625"><tspan
           id="tspan290">Simulation</tspan></text>
</g></g><path
     id="path298"
     stroke-width=".7925"
     stroke-miterlimit="10"
     stroke-linejoin="round"
     stroke-linecap="round"
     stroke="#000"
     fill="none"
     d="m260.65 121.5v47.25m-1.5-47.25v47.25" /><g
     id="g316"><path
       id="path300"
       fill-rule="evenodd"
       d="m265.3 121.8-5.25-10.5-5.4 10.5" /><text
       id="text304"
       style="font-size:10.31900024px;line-height:0%;font-family:Arial;fill:#000000"
       font-size="10.319px"
       y="146.09686"
       x="180.84624"><tspan
         id="tspan302">Assess</tspan></text>
<text
       id="text314"
       style="font-size:11.90799999px;line-height:0%;font-family:Arial;fill:#000000"
       font-size="11.908px"
       y="115.79675"
       x="114.24625">Business</text>
<text
       x="265.11133"
       y="146.09686"
       font-size="10.319px"
       style="font-size:10.31900024px;line-height:0%;font-family:Arial;fill:#000000"
       id="text4261"><tspan
         id="tspan4259">Refine</tspan></text>
<text
       x="316.98215"
       y="115.79675"
       font-size="11.908px"
       style="font-size:11.90799999px;line-height:0%;font-family:Arial;fill:#000000"
       id="text4404">Applicable</text>
<text
       x="120.32832"
       y="129.48143"
       font-size="11.908px"
       style="font-size:11.90799999px;line-height:0%;font-family:Arial;fill:#000000"
       id="text4406">Needs</text>
<text
       id="text4408"
       style="font-size:11.90799999px;line-height:0%;font-family:Arial;fill:#000000"
       font-size="11.908px"
       y="129.48143"
       x="315.71506">Knowledge</text>
</g><path
     id="path318"
     stroke-width=".7925"
     stroke-miterlimit="10"
     stroke-linejoin="round"
     stroke-linecap="round"
     stroke="#000"
     fill="none"
     d="m198.55 276v31.05m-1.65-31.05v31.05m0.75 0.9h-146.7m146.7-1.5h-146.7m0-0.15-0.6-25.05m2.25 25.05-0.6-25.05" /><path
     id="path320"
     fill-rule="evenodd"
     d="m56.646 281.55-5.7-10.5-4.95 10.8" /><path
     id="path322"
     stroke-width=".7925"
     stroke-miterlimit="10"
     stroke-linejoin="round"
     stroke-linecap="round"
     stroke="#000"
     fill="none"
     d="m278.5 276.15v31.05m-1.65-31.05v31.05m0.9 0.75h155.55m-155.55-1.5h155.55m0.9 0.75v-38.25m-1.65 38.25v-38.25" /><path
     id="path324"
     fill-rule="evenodd"
     d="m438.7 269.25-5.4-10.8-5.25 10.8" /><path
     id="path332"
     stroke-width=".7925"
     stroke-miterlimit="10"
     stroke-linejoin="round"
     stroke-linecap="round"
     stroke="#000"
     fill="none"
     d="m223.45 111.15v47.25m-1.5-47.25v47.25" /><g
     id="g340"
     fill-rule="evenodd"><path
       id="path334"
       d="m217.45 158.25 5.25 10.5 5.4-10.5" /><path
       id="path336"
       stroke-width=".59375"
       stroke-miterlimit="10"
       stroke-linejoin="round"
       stroke-linecap="round"
       stroke="#000"
       fill="#02c691"
       d="m157.75 137.1v7.8h-49.95v15.6h49.95v7.65l16.8-15.6z" /><path
       id="path338"
       stroke-width=".59375"
       stroke-miterlimit="10"
       stroke-linejoin="round"
       stroke-linecap="round"
       stroke="#000"
       fill="#02c691"
       d="m326.65 137.1v7.65h53.4v15.6h-53.4v7.8l-17.85-15.6z" /></g><path
     id="path342"
     stroke-width=".59375"
     stroke-miterlimit="10"
     stroke-linejoin="round"
     stroke-linecap="round"
     stroke="#000"
     fill="none"
     d="m116.2 0.29688-0.15 1.5-0.45 1.35-0.75 1.2-0.9 1.05-1.05 0.9-1.35 0.75-1.35 0.45-1.5 0.15v29.55l1.5 0.15 1.35 0.45 1.35 0.75 1.05 0.9 0.9 1.05 0.75 1.35 0.45 1.35 0.15 1.5h51.9l0.15-1.5 0.45-1.35 0.6-1.35 0.9-1.05 1.05-0.9 1.35-0.75 1.35-0.45 1.5-0.15v-29.55l-1.5-0.15-1.35-0.45-1.35-0.75-1.05-0.9-0.9-1.05-0.6-1.2-0.45-1.35-0.15-1.5zm200.1 0-0.15 1.5-0.45 1.35-0.75 1.2-0.75 1.05-1.2 0.9-1.2 0.75-1.5 0.45-1.5 0.15v29.55l1.5 0.15 1.5 0.45 1.2 0.75 1.2 0.9 0.75 1.05 0.75 1.35 0.45 1.35 0.15 1.5h51.9l0.15-1.5 0.45-1.35 0.6-1.35 0.9-1.05 1.2-0.9 1.2-0.75 1.5-0.45 1.5-0.15v-29.55l-1.5-0.15-1.5-0.45-1.2-0.75-1.2-0.9-0.9-1.05-0.6-1.2-0.45-1.35-0.15-1.5z" /><path
     id="path470"
     stroke-width=".59375"
     stroke-miterlimit="10"
     stroke-linejoin="round"
     stroke-linecap="round"
     stroke="#000"
     fill="none"
     d="m116.2 0.29688-0.15 1.5-0.45 1.35-0.75 1.2-0.9 1.05-1.05 0.9-1.35 0.75-1.35 0.45-1.5 0.15v29.55l1.5 0.15 1.35 0.45 1.35 0.75 1.05 0.9 0.9 1.05 0.75 1.35 0.45 1.35 0.15 1.5h51.9l0.15-1.5 0.45-1.35 0.6-1.35 0.9-1.05 1.05-0.9 1.35-0.75 1.35-0.45 1.5-0.15v-29.55l-1.5-0.15-1.35-0.45-1.35-0.75-1.05-0.9-0.9-1.05-0.6-1.2-0.45-1.35-0.15-1.5zm200.1 0-0.15 1.5-0.45 1.35-0.75 1.2-0.75 1.05-1.2 0.9-1.2 0.75-1.5 0.45-1.5 0.15v29.55l1.5 0.15 1.5 0.45 1.2 0.75 1.2 0.9 0.75 1.05 0.75 1.35 0.45 1.35 0.15 1.5h51.9l0.15-1.5 0.45-1.35 0.6-1.35 0.9-1.05 1.2-0.9 1.2-0.75 1.5-0.45 1.5-0.15v-29.55l-1.5-0.15-1.5-0.45-1.2-0.75-1.2-0.9-0.9-1.05-0.6-1.2-0.45-1.35-0.15-1.5z" /><text
     x="78.696251"
     y="321.80527"
     font-size="11.908px"
     style="font-size:11.90799999px;line-height:0%;font-family:Arial;fill:#000000"
     id="text4207"><tspan
       x="78.696251"
       y="321.80527"
       id="tspan4203">Application in the</tspan><tspan
       id="tspan4223"
       x="78.696251"
       y="321.80527" /><tspan
       id="tspan4225"
       x="78.696251"
       y="321.80527" /></text>
<text
     id="text4233"
     style="font-size:11.90799999px;line-height:0%;font-family:Arial;fill:#000000"
     font-size="11.908px"
     y="335.42407"
     x="58.626419">Appropriate Environment</text>
<text
     id="text4251"
     style="font-size:11.90799999px;line-height:0%;font-family:Arial;fill:#000000"
     font-size="11.908px"
     y="321.44687"
     x="309.84625">Additions to the</text>
<text
     x="305.90396"
     y="333.99051"
     font-size="11.908px"
     style="font-size:11.90799999px;line-height:0%;font-family:Arial;fill:#000000"
     id="text4253">Knowledge Base</text>
</svg>