<?xml version="1.0" encoding="UTF-8"?>
<!-- Created with Inkscape (http://www.inkscape.org/) -->
<svg width="632.12mm" height="361.5mm" version="1.1" viewBox="0 0 2239.8 1280.9" xmlns="http://www.w3.org/2000/svg" xmlns:cc="http://creativecommons.org/ns#" xmlns:dc="http://purl.org/dc/elements/1.1/" xmlns:rdf="http://www.w3.org/1999/02/22-rdf-syntax-ns#">
 <defs>
  <marker id="marker5820" overflow="visible" orient="auto">
   <path transform="matrix(-.8 0 0 -.8 -10 0)" d="m0 0 5-5-17.5 5 17.5 5-5-5z" fill-rule="evenodd" stroke="#000" stroke-width="1pt"/>
  </marker>
  <marker id="marker5754" overflow="visible" orient="auto">
   <path transform="matrix(-.8 0 0 -.8 -10 0)" d="m0 0 5-5-17.5 5 17.5 5-5-5z" fill-rule="evenodd" stroke="#000" stroke-width="1pt"/>
  </marker>
  <marker id="marker5694" overflow="visible" orient="auto">
   <path transform="matrix(-.8 0 0 -.8 -10 0)" d="m0 0 5-5-17.5 5 17.5 5-5-5z" fill-rule="evenodd" stroke="#000" stroke-width="1pt"/>
  </marker>
  <marker id="marker5640" overflow="visible" orient="auto">
   <path transform="matrix(-.8 0 0 -.8 -10 0)" d="m0 0 5-5-17.5 5 17.5 5-5-5z" fill-rule="evenodd" stroke="#000" stroke-width="1pt"/>
  </marker>
  <marker id="marker4746" overflow="visible" orient="auto">
   <path transform="matrix(-.8 0 0 -.8 -10 0)" d="m0 0 5-5-17.5 5 17.5 5-5-5z" fill-rule="evenodd" stroke="#000" stroke-width="1pt"/>
  </marker>
  <marker id="marker4704" overflow="visible" orient="auto">
   <path transform="matrix(-.8 0 0 -.8 -10 0)" d="m0 0 5-5-17.5 5 17.5 5-5-5z" fill-rule="evenodd" stroke="#000" stroke-width="1pt"/>
  </marker>
  <marker id="marker4484" overflow="visible" orient="auto">
   <path transform="matrix(-.8 0 0 -.8 -10 0)" d="m0 0 5-5-17.5 5 17.5 5-5-5z" fill-rule="evenodd" stroke="#000" stroke-width="1pt"/>
  </marker>
  <marker id="Arrow1Lend" overflow="visible" orient="auto">
   <path transform="matrix(-.8 0 0 -.8 -10 0)" d="m0 0 5-5-17.5 5 17.5 5-5-5z" fill-rule="evenodd" stroke="#000" stroke-width="1pt"/>
  </marker>
 </defs>
 <metadata>
  <rdf:RDF>
   <cc:Work rdf:about="">
    <dc:format>image/svg+xml</dc:format>
    <dc:type rdf:resource="http://purl.org/dc/dcmitype/StillImage"/>
    <dc:title/>
   </cc:Work>
  </rdf:RDF>
 </metadata>
 <g stroke="#000">
  <g transform="matrix(.62589 0 0 .62589 2079.1 518.6)">
   <circle cx="-1717.1" cy="-336.21" r="74.286" fill="#fff"/>
   <g fill="none" stroke-width="1px">
    <path d="m-1717.1-263.35-4.2857 224.29-88.571 90"/>
    <path d="m-1722.9-37.638 77.143 71.429"/>
    <path d="m-1812.9-226.21 94.286 41.429 88.571-41.429"/>
   </g>
  </g>
  <g transform="translate(2368.5,235.97)">
   <rect x="-1588" y="535.16" width="515.18" height="171.73" fill="#fff"/>
   <path d="m-1359.7 335.15v195.97" fill="none" marker-end="url(#Arrow1Lend)" stroke-width="1px"/>
   <rect x="-2297.1" y="801.84" width="515.18" height="171.73" fill="#fff"/>
   <path d="m-1068.7 882.66h349.37" fill="none" marker-end="url(#marker4484)" stroke-width="1.0396px"/>
   <rect x="-1585.9" y="801.84" width="515.18" height="171.73" fill="#fff"/>
   <path d="m-1781.9 884.68h192.8" fill="none" marker-end="url(#marker4704)" stroke-width=".72018px"/>
   <path d="m-1329.4 706.89v92.934" fill="none" marker-end="url(#marker4746)" stroke-width="1px"/>
  </g>
  <g transform="translate(2368.5,235.97)" fill="#fff">
   <rect x="-715.19" y="801.84" width="515.18" height="171.73"/>
   <rect x="-2297.1" y="112.92" width="515.18" height="171.73"/>
   <rect x="-715.19" y="116.96" width="515.18" height="171.73"/>
  </g>
  <g transform="translate(2368.5,235.97)" fill="none">
   <g stroke-width="1px">
    <path d="m-454.57 799.82v-511.14" marker-end="url(#marker5640)"/>
    <path d="m-717.21 195.75h-573.77" marker-end="url(#marker5694)"/>
    <path d="m-1779.9 199.79h347.49" marker-end="url(#marker5754)"/>
   </g>
   <path d="m-2048.6 803.86v-513.11" marker-end="url(#marker5820)" stroke-width="1.012px"/>
  </g>
 </g>
 <g fill="#000000" letter-spacing="0px" word-spacing="0px">
  <text x="1051.261" y="1001.4489" font-family="'Latin Modern Sans'" stroke-width="1px" style="line-height:0%" xml:space="preserve"><tspan x="1051.261" y="1001.4489" font-family="Arial" font-size="40px" style="line-height:1.25">getsPassedTo</tspan></text>
  <text x="618.91565" y="1060.0377" font-family="Arial" font-size="40px" stroke-width="1px" style="line-height:0%" xml:space="preserve"><tspan x="618.91565" y="1060.0377" style="line-height:1.25">gets</tspan><tspan x="618.91565" y="1110.0377" style="line-height:1.25">Passed</tspan><tspan x="618.91565" y="1160.0377" style="line-height:1.25">To</tspan></text>
  <g font-family="'Latin Modern Sans'">
   <text x="201.05786" y="1136.8093" color="#000000" color-rendering="auto" image-rendering="auto" shape-rendering="auto" solid-color="#000000" stroke-width="1.4587px" text-rendering="auto" style="isolation:auto;line-height:0%;mix-blend-mode:normal;text-decoration-color:#000000;text-decoration-line:none;text-decoration-style:solid;text-indent:0;text-transform:none;white-space:normal" xml:space="preserve"><tspan x="201.05786" y="1136.8093" font-family="Arial" font-size="45.31px" style="line-height:1.25">State/Store</tspan></text>
   <text x="1392.6926" y="1100.4438" stroke-width="1px" style="line-height:0%" xml:space="preserve"><tspan x="1392.6926" y="1100.4438" font-family="Arial" font-size="40px" style="line-height:1.25">produces</tspan></text>
   <text x="851.25073" y="1130.7484" color="#000000" color-rendering="auto" image-rendering="auto" shape-rendering="auto" solid-color="#000000" stroke-width="1.4587px" text-rendering="auto" style="isolation:auto;line-height:0%;mix-blend-mode:normal;text-decoration-color:#000000;text-decoration-line:none;text-decoration-style:solid;text-indent:0;text-transform:none;white-space:normal" xml:space="preserve"><tspan x="851.25073" y="1130.7484" font-family="Arial" font-size="45.31px" style="line-height:1.25">reduce(state, action)</tspan></text>
  </g>
  <text x="353.86633" y="782.75751" font-family="Arial" font-size="40px" stroke-width="1px" style="line-height:0%" xml:space="preserve"><tspan x="353.86633" y="782.75751" style="line-height:1.25">updates / </tspan><tspan x="353.86633" y="832.75751" style="line-height:1.25">rendersTo</tspan></text>
  <text x="1935.7653" y="782.75751" font-family="Arial" font-size="40px" stroke-width="1px" style="line-height:0%" xml:space="preserve"><tspan x="1935.7653" y="782.75751" style="line-height:1.25">updates / </tspan><tspan x="1935.7653" y="832.75751" style="line-height:1.25">rendersTo</tspan></text>
  <text x="228.57275" y="446.27014" color="#000000" color-rendering="auto" font-family="'Latin Modern Sans'" image-rendering="auto" shape-rendering="auto" solid-color="#000000" stroke-width="1.4587px" text-rendering="auto" style="isolation:auto;line-height:0%;mix-blend-mode:normal;text-decoration-color:#000000;text-decoration-line:none;text-decoration-style:solid;text-indent:0;text-transform:none;white-space:normal" xml:space="preserve"><tspan x="228.57275" y="446.27014" font-family="Arial" font-size="45.31px" style="line-height:1.25">&lt;View/&gt;</tspan></text>
  <text x="1820.1631" y="449.31073" color="#000000" color-rendering="auto" font-family="'Latin Modern Sans'" image-rendering="auto" shape-rendering="auto" solid-color="#000000" stroke-width="1.4587px" text-rendering="auto" style="isolation:auto;line-height:0%;mix-blend-mode:normal;text-decoration-color:#000000;text-decoration-line:none;text-decoration-style:solid;text-indent:0;text-transform:none;white-space:normal" xml:space="preserve"><tspan x="1820.1631" y="449.31073" font-family="Arial" font-size="45.31px" style="line-height:1.25">&lt;View'/&gt;</tspan></text>
  <g font-family="'Latin Modern Sans'" stroke-width="1px">
   <text x="1345.2695" y="410.92493" style="line-height:0%" xml:space="preserve"><tspan x="1345.2695" y="410.92493" font-family="Arial" font-size="40px" style="line-height:1.25">sees</tspan></text>
   <text x="712.91406" y="416.98584" style="line-height:0%" xml:space="preserve"><tspan x="712.91406" y="416.98584" font-family="Arial" font-size="40px" style="line-height:1.25">sees</tspan></text>
   <text x="1024.041" y="675.5849" style="line-height:0%" xml:space="preserve"><tspan x="1024.041" y="675.5849" font-family="Arial" font-size="40px" style="line-height:1.25">makes</tspan></text>
  </g>
  <g shape-rendering="auto" text-rendering="auto">
   <text x="849.02429" y="873.57483" color="#000000" color-rendering="auto" font-family="'Latin Modern Sans'" image-rendering="auto" solid-color="#000000" stroke-width="1px" style="isolation:auto;line-height:0%;mix-blend-mode:normal;text-decoration-color:#000000;text-decoration-line:none;text-decoration-style:solid;text-indent:0;text-transform:none;white-space:normal" xml:space="preserve"><tspan x="849.02429" y="873.57483" font-family="Arial" font-size="45.31px" style="line-height:1.25">Action: {type, data}</tspan></text>
   <text x="1780.7943" y="1136.8093" color="#000000" color-rendering="auto" font-family="'Latin Modern Sans'" image-rendering="auto" solid-color="#000000" stroke-width="1.4587px" style="isolation:auto;line-height:0%;mix-blend-mode:normal;text-decoration-color:#000000;text-decoration-line:none;text-decoration-style:solid;text-indent:0;text-transform:none;white-space:normal" xml:space="preserve"><tspan x="1780.7943" y="1136.8093" font-family="Arial" font-size="45.31px" style="line-height:1.25">State/Store'</tspan></text>
   <g stroke-width="1px">
    <text x="725.79669" y="75.201744" color="#000000" color-rendering="auto" font-family="Arial" font-size="45.31px" image-rendering="auto" solid-color="#000000" style="isolation:auto;line-height:0%;mix-blend-mode:normal;text-decoration-color:#000000;text-decoration-line:none;text-decoration-style:solid;text-indent:0;text-transform:none;white-space:normal" xml:space="preserve"><tspan x="725.79669" y="75.201744" style="line-height:1.25">* User</tspan><tspan x="725.79669" y="75.201744" style="line-height:1.25"/></text>
    <text x="725.79669" y="136.95494" color="#000000" color-rendering="auto" font-family="'Latin Modern Sans'" image-rendering="auto" solid-color="#000000" style="isolation:auto;line-height:0%;mix-blend-mode:normal;text-decoration-color:#000000;text-decoration-line:none;text-decoration-style:solid;text-indent:0;text-transform:none;white-space:normal" xml:space="preserve"><tspan x="725.79669" y="136.95494" font-family="Arial" font-size="45.31px" style="line-height:1.25">* LinkedData-Service/Crawler</tspan></text>
    <text x="725.79669" y="201.88336" color="#000000" color-rendering="auto" font-family="'Latin Modern Sans'" image-rendering="auto" solid-color="#000000" style="isolation:auto;line-height:0%;mix-blend-mode:normal;text-decoration-color:#000000;text-decoration-line:none;text-decoration-style:solid;text-indent:0;text-transform:none;white-space:normal" xml:space="preserve"><tspan x="725.79669" y="201.88336" font-family="Arial" font-size="45.31px" style="line-height:1.25">* WebSocket/Connection to Owner-Server</tspan></text>
   </g>
  </g>
 </g>
</svg>
